<svg width="30" height="30" viewBox="0 0 30 30" fill="none" xmlns="http://www.w3.org/2000/svg">
<g clip-path="url(#clip0_7_2)">
<path d="M30 15.0911C30 6.75589 23.2837 -0.00114441 14.999 -0.00114441C6.71428 -0.00114441 -0.00183105 6.75589 -0.00183105 15.0911C-0.00183105 22.6241 5.48378 28.8679 12.6552 30V19.4537H8.84634V15.0911H12.6552V11.7661C12.6552 7.9836 14.8947 5.89427 18.3212 5.89427C19.9624 5.89427 21.6791 6.18904 21.6791 6.18904V9.90315H19.7876C17.9241 9.90315 17.3429 11.0665 17.3429 12.26V15.0911H21.5033L20.8382 19.4537H17.3429V30C24.5143 28.8679 30 22.6241 30 15.0911Z" fill="url(#paint0_linear_7_2)"/>
</g>
<defs>
<linearGradient id="paint0_linear_7_2" x1="-9.82254e-08" y1="-9.82254e-08" x2="30" y2="30" gradientUnits="userSpaceOnUse">
<stop stop-color="#F0F0F0"/>
<stop offset="1" stop-color="#383838"/>
</linearGradient>
<clipPath id="clip0_7_2">
<rect width="30" height="30" fill="white"/>
</clipPath>
</defs>
</svg>
