<svg width="30" height="30" viewBox="0 0 30 30" fill="none" xmlns="http://www.w3.org/2000/svg">
<g clip-path="url(#clip0_7_4)">
<path d="M15.0014 0C10.9276 0 10.4164 0.017813 8.81634 0.0906262C7.21944 0.163752 6.12943 0.416567 5.17567 0.787508C4.18911 1.17064 3.35222 1.68314 2.51846 2.51721C1.68408 3.35098 1.17158 4.18785 0.787196 5.17412C0.415316 6.12819 0.162189 7.21851 0.0903133 8.81479C0.01875 10.4148 0 10.9264 0 15.0002C0 19.074 0.0181255 19.5836 0.0906262 21.1838C0.164065 22.7805 0.41688 23.8706 0.787508 24.8243C1.17095 25.8109 1.68346 26.6477 2.51752 27.4815C3.35098 28.3159 4.18785 28.8296 5.1738 29.2129C6.12819 29.5837 7.21851 29.8365 8.81509 29.9096C10.4151 29.9826 10.9261 30.0004 14.9995 30.0004C19.0736 30.0004 19.5833 29.9826 21.1834 29.9096C22.7803 29.8365 23.8716 29.5837 24.8259 29.2129C25.8122 28.8296 26.6477 28.3159 27.4813 27.4815C28.3157 26.6477 28.8281 25.8109 29.2125 24.8246C29.5813 23.8706 29.8344 22.7803 29.9094 21.1839C29.9813 19.584 30 19.074 30 15.0002C30 10.9264 29.9813 10.4151 29.9094 8.81509C29.8344 7.21821 29.5813 6.12819 29.2125 5.17444C28.8281 4.18785 28.3157 3.35098 27.4813 2.51721C26.6467 1.68283 25.8124 1.17032 24.825 0.787508C23.8687 0.416567 22.7781 0.163752 21.1811 0.0906262C19.5812 0.017813 19.0718 0 14.9967 0H15.0014ZM13.6558 2.70315C14.0552 2.70253 14.5008 2.70315 15.0014 2.70315C19.0065 2.70315 19.4811 2.71753 21.0628 2.7894C22.5253 2.85628 23.319 3.10065 23.8477 3.30598C24.5477 3.57786 25.0468 3.90285 25.5714 4.42785C26.0964 4.95287 26.4216 5.45287 26.694 6.15287C26.8993 6.681 27.144 7.47476 27.2106 8.93728C27.2826 10.5185 27.2981 10.9936 27.2981 14.9967C27.2981 18.9999 27.2826 19.4749 27.2106 21.0561C27.1438 22.5188 26.8993 23.3124 26.694 23.8406C26.4221 24.5406 26.0964 25.0389 25.5714 25.5637C25.0464 26.0887 24.5481 26.4137 23.8477 26.6856C23.3196 26.8918 22.5253 27.1356 21.0628 27.2025C19.4814 27.2743 19.0065 27.2901 15.0014 27.2901C10.996 27.2901 10.5214 27.2743 8.94009 27.2025C7.47758 27.135 6.68381 26.8905 6.15474 26.6852C5.45475 26.4133 4.95474 26.0884 4.42973 25.5634C3.90473 25.0384 3.57973 24.5396 3.30722 23.8393C3.10191 23.3111 2.85722 22.5174 2.79066 21.0549C2.71879 19.4736 2.70441 18.9986 2.70441 14.993C2.70441 10.9873 2.71879 10.5148 2.79066 8.93353C2.85754 7.47101 3.10191 6.67725 3.30722 6.1485C3.57909 5.44849 3.90473 4.94848 4.42973 4.42348C4.95474 3.89848 5.45475 3.57347 6.15474 3.30097C6.68351 3.09472 7.47758 2.85098 8.94009 2.78378C10.3239 2.72128 10.8601 2.70253 13.6558 2.6994V2.70315ZM23.0083 5.19381C22.0146 5.19381 21.2083 5.99912 21.2083 6.99321C21.2083 7.98696 22.0146 8.79323 23.0083 8.79323C24.0021 8.79323 24.8083 7.98696 24.8083 6.99321C24.8083 5.99944 24.0021 5.19319 23.0083 5.19319V5.19381ZM15.0014 7.29696C10.7473 7.29696 7.29819 10.7461 7.29819 15.0002C7.29819 19.2542 10.7473 22.7017 15.0014 22.7017C19.2555 22.7017 22.7034 19.2542 22.7034 15.0002C22.7034 10.7461 19.2551 7.29696 15.0011 7.29696H15.0014ZM15.0014 10.0001C17.7627 10.0001 20.0014 12.2386 20.0014 15.0002C20.0014 17.7614 17.7627 20.0002 15.0014 20.0002C12.2398 20.0002 10.0014 17.7614 10.0014 15.0002C10.0014 12.2386 12.2398 10.0001 15.0014 10.0001Z" fill="url(#paint0_linear_7_4)"/>
</g>
<defs>
<linearGradient id="paint0_linear_7_4" x1="0" y1="0" x2="30" y2="30" gradientUnits="userSpaceOnUse">
<stop stop-color="#F0F0F0"/>
<stop offset="1" stop-color="#383838"/>
</linearGradient>
<clipPath id="clip0_7_4">
<rect width="30" height="30" fill="white"/>
</clipPath>
</defs>
</svg>
