<svg width="30" height="25" viewBox="0 0 30 25" fill="none" xmlns="http://www.w3.org/2000/svg">
<g clip-path="url(#clip0_7_6)">
<path d="M9.42377 24.375C20.7443 24.375 26.9387 14.9945 26.9387 6.87347C26.9387 6.60956 26.9387 6.34566 26.9267 6.08175C28.1272 5.21807 29.1716 4.12648 30 2.89093C28.8956 3.38274 27.7071 3.70663 26.4585 3.86257C27.7311 3.10686 28.7034 1.89531 29.1716 0.455831C27.9832 1.16357 26.6627 1.66738 25.2581 1.94329C24.1296 0.743724 22.533 0 20.7682 0C17.371 0 14.6099 2.75899 14.6099 6.15373C14.6099 6.63354 14.6699 7.10137 14.7659 7.55721C9.65186 7.3053 5.11404 4.84622 2.07683 1.12758C1.54862 2.03925 1.2485 3.09486 1.2485 4.22244C1.2485 6.35766 2.34094 8.24096 3.98559 9.34455C2.9772 9.30857 2.02881 9.03266 1.20048 8.57683C1.20048 8.60083 1.20048 8.62481 1.20048 8.66079C1.20048 11.6357 3.32533 14.1308 6.13446 14.6946C5.61825 14.8385 5.07803 14.9105 4.5138 14.9105C4.11765 14.9105 3.7335 14.8745 3.36135 14.8025C4.14165 17.2496 6.42257 19.0251 9.11164 19.0729C6.99879 20.7283 4.34574 21.7119 1.46459 21.7119C0.97239 21.7119 0.480191 21.6879 0 21.6279C2.71309 23.3554 5.95438 24.375 9.42377 24.375Z" fill="url(#paint0_linear_7_6)"/>
</g>
<defs>
<linearGradient id="paint0_linear_7_6" x1="0" y1="0" x2="30" y2="24.375" gradientUnits="userSpaceOnUse">
<stop stop-color="#F0F0F0"/>
<stop offset="1" stop-color="#383838"/>
</linearGradient>
<clipPath id="clip0_7_6">
<rect width="30" height="24.375" fill="white"/>
</clipPath>
</defs>
</svg>
